<svg width="24" height="24" viewBox="0 0 24 24" fill="none" xmlns="http://www.w3.org/2000/svg">
  <path
    d="M15.8333 9.16666H4.16667C3.24619 9.16666 2.5 9.91285 2.5 10.8333V16.6667C2.5 17.5871 3.24619 18.3333 4.16667 18.3333H15.8333C16.7538 18.3333 17.5 17.5871 17.5 16.6667V10.8333C17.5 9.91285 16.7538 9.16666 15.8333 9.16666Z"
    stroke="#837E9F" stroke-width="2" stroke-linecap="round" stroke-linejoin="round" />
  <path
    d="M6 5.5V3.66667C6 3.22464 6.42143 2.80072 7.17157 2.48816C7.92172 2.17559 8.93913 2 10 2C11.0609 2 12.0783 2.17559 12.8284 2.48816C13.5786 2.80072 14 3.22464 14 3.66667V9"
    stroke="#837E9F" stroke-width="2" stroke-linecap="round" stroke-linejoin="round" />
</svg>
